<?xml version="1.0" standalone="no"?>
<!DOCTYPE svg PUBLIC "-//W3C//DTD SVG 20010904//EN"
 "http://www.w3.org/TR/2001/REC-SVG-20010904/DTD/svg10.dtd">
<svg version="1.0" xmlns="http://www.w3.org/2000/svg"
 width="800.000000pt" height="600.000000pt" viewBox="0 0 800.000000 600.000000"
 preserveAspectRatio="xMidYMid meet">

<g transform="translate(0.000000,600.000000) scale(0.100000,-0.100000)"
fill="#000000" stroke="none">
<path d="M987 5423 c-2 -4 -4 -42 -4 -83 -1 -63 -4 -75 -19 -81 -11 -4 -49
-20 -86 -35 l-68 -27 -54 52 c-30 28 -58 51 -63 51 -16 0 -155 -149 -148 -159
4 -7 -1 -8 -12 -4 -10 3 9 -22 41 -55 58 -59 59 -62 46 -89 -7 -15 -23 -55
-35 -88 l-23 -60 -81 -3 -81 -3 0 -119 0 -119 81 -3 81 -3 23 -60 c12 -33 28
-73 35 -88 13 -27 12 -30 -43 -85 l-57 -57 84 -83 c45 -45 87 -82 92 -82 4 0
32 23 60 51 l52 51 87 -35 87 -35 1 -76 c0 -54 4 -79 14 -84 11 -7 13 -123 9
-703 -2 -381 -5 -715 -5 -741 0 -27 -5 -48 -11 -48 -5 0 -10 -10 -10 -22 0
-14 3 -18 8 -11 7 12 7 -451 -1 -464 -2 -5 -10 -33 -17 -63 -6 -30 -16 -68
-22 -85 -8 -24 -3 -49 21 -129 17 -55 34 -102 37 -105 4 -3 5 15 3 41 l-4 48
2560 2 c2552 3 2560 3 2560 23 0 20 -8 20 -972 23 l-973 2 0 30 0 30 790 0
791 0 -21 23 -21 22 60 3 c45 2 61 7 61 18 0 11 -15 14 -75 12 -58 -1 -74 -5
-71 -15 4 -11 -64 -13 -364 -13 -240 0 -370 4 -370 10 0 7 -459 10 -1357 10
-747 0 -1598 3 -1890 7 l-533 6 0 1047 0 1047 25 -5 25 -4 0 86 c0 75 2 86 18
86 9 0 46 14 80 30 35 17 69 30 75 30 6 0 35 -24 64 -52 l53 -53 87 87 87 88
-58 56 -58 56 26 48 c14 26 29 65 34 86 l8 39 82 0 c50 -1 82 3 83 10 1 5 1
40 1 78 l0 67 39 0 39 0 0 95 0 94 -136 3 -135 3 -21 36 -20 35 59 57 58 56
-87 88 -88 88 -55 -55 c-55 -54 -55 -54 -88 -41 -17 7 -58 23 -89 35 l-58 21
0 81 0 82 -119 1 c-66 1 -121 -2 -124 -6z m249 -456 l47 -24 -68 -6 c-82 -8
-143 -41 -177 -94 -21 -35 -23 -50 -26 -215 l-4 -177 -31 19 c-134 82 -186
239 -121 368 32 64 102 128 163 147 63 20 157 12 217 -18z m144 -274 c-10
-104 -61 -178 -157 -227 -18 -9 -34 -16 -38 -16 -3 0 -5 68 -5 150 l0 150 103
0 103 0 -6 -57z"/>
<path d="M5250 4846 l0 -96 353 -2 352 -3 3 -327 2 -328 85 0 85 0 0 333 c0
201 -4 347 -11 370 -12 44 -59 101 -103 125 -27 15 -75 17 -398 20 l-368 3 0
-95z"/>
<path d="M6980 4135 c0 -34 -46 -54 -69 -31 -13 14 -17 13 -38 -6 -21 -20 -22
-23 -7 -39 14 -16 14 -20 0 -48 -9 -17 -20 -30 -24 -30 -24 4 -32 -4 -32 -31
0 -24 4 -30 23 -30 31 0 53 -47 33 -69 -13 -14 -12 -19 5 -40 18 -22 20 -23
38 -7 25 23 71 3 71 -31 0 -19 5 -23 30 -23 27 0 35 8 31 32 0 4 13 15 29 23
28 14 32 14 47 0 14 -15 18 -14 39 6 22 20 23 24 9 39 -22 25 -4 70 28 70 19
0 23 5 23 30 0 29 -3 32 -35 34 -24 2 -36 54 -17 75 15 16 14 19 -8 38 -21 19
-25 19 -39 6 -18 -18 -71 -5 -73 18 -1 8 -2 20 -3 27 0 6 -14 12 -31 12 -25 0
-30 -4 -30 -25z m64 -105 c26 -9 56 -56 56 -85 0 -28 -55 -75 -88 -75 -37 0
-82 41 -82 74 0 39 20 74 49 85 34 13 36 13 65 1z"/>
<path d="M5962 2753 l3 -758 55 -12 c30 -6 67 -12 83 -12 l27 -1 0 770 0 770
-85 0 -85 0 2 -757z"/>
<path d="M6738 3185 c-54 -20 -140 -77 -171 -114 -35 -42 -37 -98 -4 -129 29
-27 37 -28 37 -3 0 33 19 34 57 2 21 -17 48 -31 62 -31 13 0 39 -11 57 -25 42
-32 52 -31 67 3 20 46 37 52 67 22 27 -27 27 -83 -1 -111 l-22 -22 45 -41 c25
-23 58 -58 73 -79 55 -74 74 -82 215 -82 116 0 127 -2 159 -24 55 -40 75 -98
74 -226 0 -60 -5 -165 -12 -233 -7 -68 -11 -125 -8 -128 10 -10 84 35 111 66
36 44 41 68 40 210 -1 150 -16 199 -101 317 -79 111 -107 137 -196 184 -115
60 -145 92 -217 228 -65 124 -123 195 -177 217 -40 17 -107 17 -155 -1z"/>
<path d="M968 2538 c-9 -27 -15 -65 -13 -85 4 -30 3 -33 -4 -13 -7 23 -9 21
-15 -20 -4 -25 -3 -67 3 -95 10 -48 10 -48 6 25 -2 44 -1 63 3 45 l8 -30 7 40
c4 22 7 55 7 73 0 18 5 42 11 53 5 11 9 28 7 37 -2 10 -11 -3 -20 -30z"/>
<path d="M522 2518 c4 -29 10 -73 14 -98 4 -38 12 -50 52 -82 25 -21 48 -36
49 -34 11 11 -106 266 -121 266 -1 0 1 -24 6 -52z"/>
<path d="M918 2255 c-4 -52 -17 -109 -37 -163 -29 -77 -30 -85 -16 -115 l14
-32 -5 36 c-7 47 14 128 28 108 7 -10 8 -7 3 11 -6 24 -5 24 9 6 18 -23 20
-18 7 17 -6 15 -6 37 -1 54 4 15 9 20 9 11 1 -9 5 -20 11 -23 5 -3 8 0 6 7
-13 40 -16 69 -7 64 5 -4 13 -1 17 5 4 8 3 9 -4 5 -11 -7 -18 11 -25 64 -1 14
-5 -11 -9 -55z"/>
<path d="M935 2140 c-3 -5 -1 -10 4 -10 6 0 11 5 11 10 0 6 -2 10 -4 10 -3 0
-8 -4 -11 -10z"/>
<path d="M948 2097 c-3 -19 -2 -25 4 -19 6 6 8 18 6 28 -3 14 -5 12 -10 -9z"/>
<path d="M915 2032 c-6 -4 -11 -14 -13 -23 -2 -18 25 -22 32 -4 6 16 -7 35
-19 27z"/>
<path d="M486 1893 c-39 -266 4 -399 197 -600 l41 -43 138 0 138 0 0 109 c0
61 -4 112 -8 115 -4 2 -8 -43 -7 -102 l0 -107 -72 -3 -73 -3 0 103 c0 63 4 98
9 89 9 -14 12 -5 26 68 5 29 15 40 15 18 0 -9 7 -17 15 -17 8 0 15 5 15 11 0
6 9 8 20 4 28 -9 26 14 -4 47 -14 14 -22 28 -19 31 3 3 -2 16 -11 29 -9 12
-16 17 -16 11 0 -6 -9 -9 -20 -6 -11 3 -20 1 -20 -5 0 -5 9 -12 20 -15 11 -3
20 0 20 6 0 7 5 6 13 -2 9 -11 9 -14 0 -18 -10 -3 -9 -8 2 -20 18 -18 9 -39
-10 -23 -10 8 -15 5 -22 -16 -9 -26 -9 -26 -23 17 -8 24 -25 55 -38 68 -13 13
-21 26 -17 29 3 3 11 0 17 -6 15 -15 28 -16 28 -2 0 6 -7 10 -16 10 -8 0 -13
4 -10 9 3 5 -1 14 -9 21 -8 7 -15 24 -16 39 0 26 0 26 -10 3 -8 -22 -29 -22
-29 -1 0 6 4 8 8 5 5 -3 9 1 9 9 0 11 -4 12 -13 4 -8 -7 -14 -7 -19 1 -3 5 -1
10 6 10 7 0 10 3 6 6 -3 3 -10 3 -16 0 -15 -9 30 -75 46 -69 7 3 13 0 13 -6 0
-6 -6 -11 -12 -11 -10 0 -10 -2 0 -9 8 -4 13 -10 11 -12 -5 -9 13 -49 22 -49
6 0 7 -9 4 -21 -5 -16 -4 -19 5 -14 9 5 10 1 5 -16 -4 -15 -3 -19 3 -11 11 16
32 -27 31 -66 0 -21 -2 -23 -8 -9 -4 10 -11 19 -16 19 -28 2 -185 310 -169
332 2 3 1 4 -3 1 -3 -3 -11 -1 -17 4 -6 5 -29 19 -51 31 -22 12 -54 31 -72 41
l-31 19 -6 -37z"/>
<path d="M680 1818 c0 -2 9 -11 20 -21 11 -9 20 -13 20 -7 0 5 -9 14 -20 20
-11 6 -20 9 -20 8z"/>
<path d="M806 1725 c4 -8 11 -15 16 -15 6 0 5 6 -2 15 -7 8 -14 15 -16 15 -2
0 -1 -7 2 -15z"/>
<path d="M6635 1729 c-84 -12 -113 -27 -139 -68 -21 -33 -246 -334 -440 -589
-43 -57 -76 -105 -74 -108 18 -17 113 -84 121 -84 26 0 214 190 401 404 l59
68 18 -83 c9 -46 50 -169 92 -274 41 -104 90 -230 108 -278 l34 -88 40 6 c98
16 115 24 115 56 0 66 -56 276 -118 437 -19 51 -33 94 -31 97 2 2 114 15 249
30 344 37 416 62 455 157 24 59 22 174 -5 261 l-21 67 -402 -1 c-221 -1 -429
-5 -462 -10z"/>
<path d="M835 1690 c-3 -6 1 -7 9 -4 18 7 21 14 7 14 -6 0 -13 -4 -16 -10z"/>
<path d="M858 1673 c7 -3 16 -2 19 1 4 3 -2 6 -13 5 -11 0 -14 -3 -6 -6z"/>
<path d="M850 1595 c0 -5 5 -17 10 -25 5 -8 10 -10 10 -5 0 6 -5 17 -10 25 -5
8 -10 11 -10 5z"/>
<path d="M962 1465 c0 -16 2 -22 5 -12 2 9 2 23 0 30 -3 6 -5 -1 -5 -18z"/>
<path d="M972 1305 c0 -16 2 -22 5 -12 2 9 2 23 0 30 -3 6 -5 -1 -5 -18z"/>
<path d="M5960 724 c-25 -18 -67 -50 -94 -71 -120 -93 -124 -96 -166 -97 -34
0 -46 4 -64 25 -19 23 -25 25 -63 17 -44 -9 -99 -60 -87 -80 10 -16 104 -54
152 -62 77 -12 120 2 173 55 46 46 106 85 115 76 2 -2 0 -27 -6 -56 -5 -29 -7
-57 -4 -62 14 -23 32 -2 68 79 42 95 55 167 34 193 -12 15 -17 13 -58 -17z"/>
<path d="M7017 528 c22 -43 18 -90 -16 -209 -33 -114 -61 -154 -101 -145 -20
4 -29 -1 -43 -26 -9 -16 -17 -45 -17 -64 0 -29 4 -34 23 -34 29 0 126 45 155
72 20 19 22 31 22 110 0 48 4 88 8 88 5 0 14 -18 21 -41 9 -29 17 -39 29 -37
19 4 19 17 3 98 -6 30 -14 77 -17 103 -4 34 -14 58 -36 82 -38 44 -51 45 -31
3z"/>
</g>
</svg>
